# xmcd
#
# Track frame offsets: 
#        150
#        20236
#        40641
#        59210
#        78242
#        92605
#        98002
#        116420
#        134546
#        153613
#        174636
#
# Disc length: 2604 seconds
#
# Revision: 0
# Processed by: cddbd v1.5.2PL0 Copyright (c) Steve Scherf et al.
# Submitted via: ExactAudioCopy v1.0b3
#
DISCID=8f0a2a0b
DTITLE=John Rattanaveroj - Life Goes On
DYEAR=1900
DGENRE=Pop
TTITLE0=Life goes on
TTITLE1=Oasis
TTITLE2=The riverbend
TTITLE3=You're overdue
TTITLE4=Until the day
TTITLE5=Interlufe
TTITLE6=Just say,don't say
TTITLE7=Bad bobby
TTITLE8=Fallen
TTITLE9=Stay strong
TTITLE10=Away home
EXTD=
EXTT0=
EXTT1=
EXTT2=
EXTT3=
EXTT4=
EXTT5=
EXTT6=
EXTT7=
EXTT8=
EXTT9=
EXTT10=
PLAYORDER=
